<svg xmlns="http://www.w3.org/2000/svg" viewBox="0 0 128 128" role="img" aria-label="Java">
  <path fill="#5382A1" d="M64 118c-18 3-32-2-32-2s5 8 32 10c27-2 32-10 32-10s-14 5-32 2z"/>
  <path fill="#E76F00" d="M64 14c-22 0-38 12-38 28 0 10 6 18 16 24-8-6-12-14-12-22 0-18 18-32 40-32s40 14 40 32c0 8-4 16-12 22 10-6 16-14 16-24C102 26 86 14 64 14z"/>
  <path fill="#5382A1" d="M48 52c0-8 7-14 16-14s16 6 16 14-7 14-16 14-16-6-16-14zm32 0c0-6-5-10-12-10s-12 4-12 10 5 10 12 10 12-4 12-10z"/>
  <path fill="#F89820" d="M64 88c14 0 24-6 24-14v-4H40v4c0 8 10 14 24 14z"/>
  <ellipse fill="#5382A1" cx="64" cy="70" rx="28" ry="8"/>
</svg>
